<svg width="820" height="873" viewBox="0 0 820 873" fill="none" xmlns="http://www.w3.org/2000/svg">
<circle cx="164.391" cy="708.391" r="164.391" fill="#33A1FD"/>
<circle cx="164.391" cy="708.391" r="145.051" fill="#F4F4F4"/>
<circle cx="164.391" cy="684.216" r="67.6904" fill="#C4C4C4"/>
<path fill-rule="evenodd" clip-rule="evenodd" d="M273.231 804.526C246.656 834.529 207.842 853.442 164.611 853.442C121.431 853.442 82.6577 834.574 56.0859 804.633C74.0466 780.46 115.914 763.51 164.698 763.51C213.41 763.51 255.226 780.41 273.231 804.526Z" fill="#C4C4C4"/>
<path fill-rule="evenodd" clip-rule="evenodd" d="M154.592 692.757C154.592 690.42 155.421 688.277 156.801 686.605C158.541 683.711 162.042 682.196 165.522 682.034C167.51 681.941 169.482 681.604 171.365 681.024C175.417 679.777 178.823 677.48 181.035 674.503C183.247 671.527 184.136 668.044 183.559 664.616C182.982 661.188 180.972 658.014 177.853 655.607C174.734 653.199 170.688 651.698 166.366 651.345C162.045 650.991 157.7 651.807 154.031 653.659C150.363 655.512 147.585 658.294 146.144 661.557C146.042 661.79 145.938 662.026 145.833 662.264C143.685 667.156 141.118 673.002 136.071 674.376L135.667 674.486C131.151 675.716 126.198 673.417 125.8 668.754C125.445 664.61 126.145 660.423 127.898 656.452C130.779 649.925 136.335 644.361 143.672 640.656C151.009 636.951 159.699 635.32 168.342 636.027C176.985 636.733 185.077 639.736 191.315 644.551C197.553 649.366 201.573 655.713 202.728 662.569C203.882 669.425 202.104 676.391 197.68 682.345C193.255 688.298 186.443 692.892 178.339 695.387C176.893 695.832 175.422 696.205 173.932 696.507V702.16C173.932 707.501 169.603 711.83 164.262 711.83C158.921 711.83 154.592 707.501 154.592 702.16V692.757ZM164.262 732.566C169.603 732.566 173.932 729.119 173.932 724.867C173.932 720.615 169.603 717.168 164.262 717.168C158.921 717.168 154.592 720.615 154.592 724.867C154.592 729.119 158.921 732.566 164.262 732.566Z" fill="#56667A"/>
<path fill-rule="evenodd" clip-rule="evenodd" d="M212.485 32.271C191.098 32.271 173.76 49.6088 173.76 70.996V380.795C173.76 402.183 191.098 419.52 212.485 419.52H277.93C267.403 454.541 247.805 486.251 221.521 512.523C281.083 507.941 330.581 470.377 348.838 419.52H780.451C801.838 419.52 819.176 402.183 819.176 380.795V70.9959C819.176 49.6087 801.838 32.271 780.451 32.271H212.485Z" fill="#FDCA40"/>
<path fill-rule="evenodd" clip-rule="evenodd" d="M164.725 0C143.338 0 126 17.3378 126 38.725V348.524C126 369.912 143.338 387.249 164.725 387.249H230.17C219.643 422.27 200.046 453.981 173.761 480.254C233.323 475.672 282.822 438.107 301.079 387.249H732.691C754.078 387.249 771.416 369.912 771.416 348.524V38.7249C771.416 17.3377 754.078 0 732.691 0H164.725Z" fill="white"/>
<path d="M292.823 101.249L276.45 172.271H264.089L249.56 111.767L235.139 172.271H222.778L206.296 101.249H216.055L229.284 162.187L243.271 101.249H255.849L269.945 162.187L283.065 101.249H292.823ZM317.683 118.056C323.755 118.056 328.381 119.719 331.562 123.044C334.742 126.369 336.333 131.176 336.333 137.465V148.633H308.466V155.031C308.466 158.717 309.334 161.392 311.068 163.054C312.876 164.645 315.695 165.44 319.526 165.44C323.285 165.44 327.983 164.862 333.622 163.705L333.839 171.729C327.116 172.958 322.309 173.572 319.417 173.572C312.261 173.572 307.093 172.018 303.912 168.91C300.804 165.801 299.25 160.994 299.25 154.489V137.465C299.25 131.176 300.768 126.369 303.804 123.044C306.912 119.719 311.538 118.056 317.683 118.056ZM317.683 125.755C314.863 125.755 312.623 126.658 310.96 128.465C309.297 130.2 308.466 132.73 308.466 136.055V141.26H327.116V136.381C327.116 132.911 326.249 130.273 324.514 128.465C322.851 126.658 320.574 125.755 317.683 125.755ZM358.047 98.2134V172.271H348.831V98.2134H358.047ZM391.727 118.056C394.98 118.056 398.666 118.526 402.786 119.466L402.57 127.598C398.377 126.658 394.763 126.188 391.727 126.188C388.329 126.188 385.727 127.128 383.92 129.007C382.185 130.887 381.317 133.562 381.317 137.031V154.489C381.317 158.103 382.221 160.85 384.028 162.729C385.908 164.536 388.474 165.44 391.727 165.44C393.751 165.44 395.522 165.331 397.04 165.115C398.558 164.898 400.401 164.536 402.57 164.03L402.786 172.163C398.377 173.102 394.654 173.572 391.618 173.572C378.607 173.572 372.101 166.994 372.101 153.838V137.79C372.101 124.634 378.643 118.056 391.727 118.056ZM433.434 118.056C439.867 118.056 444.638 119.791 447.747 123.261C450.927 126.658 452.518 131.501 452.518 137.79V153.838C452.518 160.127 450.927 165.006 447.747 168.476C444.638 171.873 439.867 173.572 433.434 173.572C427 173.572 422.193 171.873 419.013 168.476C415.904 165.006 414.35 160.127 414.35 153.838V137.79C414.35 131.501 415.904 126.658 419.013 123.261C422.193 119.791 427 118.056 433.434 118.056ZM433.434 125.755C430.326 125.755 427.904 126.73 426.169 128.682C424.434 130.634 423.567 133.417 423.567 137.031V154.597C423.567 158.211 424.434 160.994 426.169 162.946C427.904 164.898 430.326 165.874 433.434 165.874C436.542 165.874 438.964 164.898 440.699 162.946C442.434 160.994 443.301 158.211 443.301 154.597V136.923C443.301 133.309 442.434 130.562 440.699 128.682C438.964 126.73 436.542 125.755 433.434 125.755ZM517.432 118.056C522.059 118.056 525.601 119.646 528.059 122.827C530.516 125.935 531.745 130.381 531.745 136.164V172.271H522.529V137.465C522.529 130.236 520.215 126.622 515.589 126.622C513.565 126.622 511.469 127.417 509.3 129.007C507.204 130.598 505.361 132.766 503.77 135.513V172.271H494.554V137.465C494.554 130.236 492.241 126.622 487.614 126.622C485.59 126.622 483.494 127.417 481.325 129.007C479.229 130.598 477.386 132.766 475.795 135.513V172.271H466.579V119.357H475.253V127.273C477.133 124.309 479.301 122.032 481.759 120.442C484.217 118.851 486.783 118.056 489.457 118.056C492.783 118.056 495.566 118.924 497.807 120.658C500.047 122.321 501.674 124.779 502.686 128.032C504.638 124.779 506.879 122.321 509.409 120.658C511.939 118.924 514.613 118.056 517.432 118.056ZM564.297 118.056C570.369 118.056 574.995 119.719 578.176 123.044C581.357 126.369 582.947 131.176 582.947 137.465V148.633H555.08V155.031C555.08 158.717 555.948 161.392 557.683 163.054C559.49 164.645 562.309 165.44 566.14 165.44C569.899 165.44 574.598 164.862 580.236 163.705L580.453 171.729C573.73 172.958 568.923 173.572 566.032 173.572C558.875 173.572 553.707 172.018 550.526 168.91C547.418 165.801 545.864 160.994 545.864 154.489V137.465C545.864 131.176 547.382 126.369 550.418 123.044C553.526 119.719 558.153 118.056 564.297 118.056ZM564.297 125.755C561.478 125.755 559.237 126.658 557.574 128.465C555.912 130.2 555.08 132.73 555.08 136.055V141.26H573.73V136.381C573.73 132.911 572.863 130.273 571.128 128.465C569.465 126.658 567.188 125.755 564.297 125.755ZM625.772 119.357H639.867V126.947H625.772V157.958C625.772 160.705 626.314 162.693 627.398 163.922C628.555 165.078 630.326 165.657 632.711 165.657C635.747 165.657 638.711 165.295 641.602 164.572L641.819 172.271C638.639 173.138 635.747 173.572 633.145 173.572C627.362 173.572 623.133 172.307 620.459 169.777C617.856 167.175 616.555 162.982 616.555 157.199V126.947H608.965V119.357H616.555L618.29 105.261H625.772V119.357ZM669.565 118.056C675.999 118.056 680.77 119.791 683.878 123.261C687.059 126.658 688.649 131.501 688.649 137.79V153.838C688.649 160.127 687.059 165.006 683.878 168.476C680.77 171.873 675.999 173.572 669.565 173.572C663.132 173.572 658.325 171.873 655.144 168.476C652.036 165.006 650.482 160.127 650.482 153.838V137.79C650.482 131.501 652.036 126.658 655.144 123.261C658.325 119.791 663.132 118.056 669.565 118.056ZM669.565 125.755C666.457 125.755 664.035 126.73 662.301 128.682C660.566 130.634 659.698 133.417 659.698 137.031V154.597C659.698 158.211 660.566 160.994 662.301 162.946C664.035 164.898 666.457 165.874 669.565 165.874C672.674 165.874 675.095 164.898 676.83 162.946C678.565 160.994 679.432 158.211 679.432 154.597V136.923C679.432 133.309 678.565 130.562 676.83 128.682C675.095 126.73 672.674 125.755 669.565 125.755ZM299.894 215.948C307.484 215.948 313.267 217.502 317.243 220.611C321.218 223.719 323.206 227.948 323.206 233.297V235.683C323.206 243.273 319.881 248.513 313.231 251.405C317.279 252.272 320.423 254.152 322.664 257.043C324.977 259.862 326.134 263.368 326.134 267.561V269.946C326.134 275.946 324.001 280.717 319.736 284.259C315.544 287.801 309.183 289.572 300.653 289.572C295.81 289.572 289.195 289.355 280.81 288.922V216.382C287.46 216.093 293.822 215.948 299.894 215.948ZM298.484 223.864C295.882 223.864 293.063 223.972 290.027 224.189V248.477H300.653C304.99 248.477 308.279 247.429 310.52 245.333C312.833 243.236 313.99 240.309 313.99 236.55V234.707C313.99 231.092 312.761 228.382 310.303 226.574C307.845 224.767 303.906 223.864 298.484 223.864ZM290.027 255.959V280.898C292.412 281.115 294.364 281.295 295.882 281.44C297.472 281.512 299.062 281.548 300.653 281.548C306.219 281.548 310.303 280.5 312.905 278.404C315.58 276.235 316.917 273.235 316.917 269.404V267.127C316.917 259.682 311.713 255.959 301.303 255.959H290.027ZM363.915 217.249L385.709 288.271H375.734L371.071 271.79H344.94L340.277 288.271H330.844L352.53 217.249H363.915ZM358.06 225.707L347.217 263.549H368.794L358.06 225.707ZM414.359 215.948C421.949 215.948 427.732 217.502 431.708 220.611C435.684 223.719 437.672 227.948 437.672 233.297V235.683C437.672 243.273 434.346 248.513 427.696 251.405C431.744 252.272 434.889 254.152 437.129 257.043C439.443 259.862 440.599 263.368 440.599 267.561V269.946C440.599 275.946 438.467 280.717 434.202 284.259C430.009 287.801 423.648 289.572 415.118 289.572C410.275 289.572 403.661 289.355 395.276 288.922V216.382C401.926 216.093 408.287 215.948 414.359 215.948ZM412.95 223.864C410.347 223.864 407.528 223.972 404.492 224.189V248.477H415.118C419.455 248.477 422.744 247.429 424.985 245.333C427.299 243.236 428.455 240.309 428.455 236.55V234.707C428.455 231.092 427.226 228.382 424.768 226.574C422.311 224.767 418.371 223.864 412.95 223.864ZM404.492 255.959V280.898C406.878 281.115 408.829 281.295 410.347 281.44C411.938 281.512 413.528 281.548 415.118 281.548C420.684 281.548 424.768 280.5 427.371 278.404C430.045 276.235 431.383 273.235 431.383 269.404V267.127C431.383 259.682 426.178 255.959 415.769 255.959H404.492ZM471.645 215.948C479.235 215.948 485.018 217.502 488.994 220.611C492.969 223.719 494.957 227.948 494.957 233.297V235.683C494.957 243.273 491.632 248.513 484.982 251.405C489.03 252.272 492.174 254.152 494.415 257.043C496.728 259.862 497.885 263.368 497.885 267.561V269.946C497.885 275.946 495.752 280.717 491.488 284.259C487.295 287.801 480.934 289.572 472.404 289.572C467.561 289.572 460.946 289.355 452.561 288.922V216.382C459.212 216.093 465.573 215.948 471.645 215.948ZM470.235 223.864C467.633 223.864 464.814 223.972 461.778 224.189V248.477H472.404C476.741 248.477 480.03 247.429 482.271 245.333C484.584 243.236 485.741 240.309 485.741 236.55V234.707C485.741 231.092 484.512 228.382 482.054 226.574C479.596 224.767 475.657 223.864 470.235 223.864ZM461.778 255.959V280.898C464.163 281.115 466.115 281.295 467.633 281.44C469.223 281.512 470.814 281.548 472.404 281.548C477.97 281.548 482.054 280.5 484.656 278.404C487.331 276.235 488.668 273.235 488.668 269.404V267.127C488.668 259.682 483.464 255.959 473.054 255.959H461.778ZM519.063 217.249V280.139H547.255V288.271H509.847V217.249H519.063ZM596.07 217.249V225.599H567.878V248.044H593.901V256.284H567.878V279.922H596.07V288.271H558.662V217.249H596.07ZM619.746 212.912L618.987 266.585H610.204L609.445 212.912H619.746ZM614.541 276.561C616.493 276.561 617.975 276.994 618.987 277.862C620.071 278.729 620.613 279.958 620.613 281.548V284.693C620.613 286.283 620.071 287.476 618.987 288.271C617.975 289.138 616.493 289.572 614.541 289.572C612.662 289.572 611.18 289.138 610.095 288.271C609.083 287.476 608.577 286.283 608.577 284.693V281.548C608.577 279.958 609.083 278.729 610.095 277.862C611.18 276.994 612.662 276.561 614.541 276.561Z" fill="black"/>
</svg>
